<?xml version="1.0" encoding="UTF-8"?>
<svg id="Capa_1" xmlns="http://www.w3.org/2000/svg" version="1.1" viewBox="0 0 74 52">
  <!-- Generator: Adobe Illustrator 29.4.0, SVG Export Plug-In . SVG Version: 2.1.0 Build 152)  -->
  <defs>
    <style>
      .st0 {
        fill: #3f4a79;
      }
    </style>
  </defs>
  <path class="st0" d="M59.43,28.93h-11.49c-.33,0-.61-.27-.61-.61s.27-.61.61-.61h11.49c7.03,0,12.75-5.72,12.75-12.75V6.33H11.48v8.64c0,1.84.38,3.62,1.14,5.28.14.31,0,.66-.3.8-.3.14-.66,0-.8-.3-.83-1.82-1.25-3.76-1.25-5.78V5.73c0-.33.27-.61.61-.61h61.91c.33,0,.61.27.61.61v9.24c0,7.7-6.26,13.96-13.96,13.96"/>
  <path class="st0" d="M35.72,28.93h-11.49c-.59,0-1.18-.04-1.74-.11-.33-.04-.57-.35-.53-.68.04-.33.35-.56.68-.53.51.07,1.04.1,1.58.1h11.49c.33,0,.6.27.6.61s-.27.61-.6.61"/>
  <path class="st0" d="M71.62,45.62H17.3c-.33,0-.61-.27-.61-.61s.27-.61.61-.61h53.71v-23.98c0-.33.27-.61.61-.61s.6.27.6.61v24.59c0,.33-.27.61-.6.61"/>
  <path class="st0" d="M46.17,34.31h-8.7c-1.3,0-2.36-1.06-2.36-2.36v-3.87c0-1.3,1.06-2.36,2.36-2.36h8.7c1.3,0,2.36,1.06,2.36,2.36v3.87c0,1.3-1.06,2.36-2.36,2.36M37.48,26.93c-.64,0-1.15.52-1.15,1.15v3.87c0,.63.52,1.15,1.15,1.15h8.7c.64,0,1.15-.52,1.15-1.15v-3.87c0-.63-.52-1.15-1.15-1.15h-8.7Z"/>
  <path class="st0" d="M46.99,6.33h-10.33c-.33,0-.61-.27-.61-.61v-2.11c0-1.57,1.28-2.85,2.85-2.85h5.84c1.57,0,2.85,1.28,2.85,2.85v2.11c0,.33-.27.61-.61.61M37.27,5.12h9.11v-1.51c0-.9-.73-1.64-1.64-1.64h-5.84c-.9,0-1.64.73-1.64,1.64v1.51Z"/>
  <path class="st0" d="M17.31,46.57H6.94c-.33,0-.61-.27-.61-.61v-4.64c-3.54-2.07-5.72-5.84-5.72-9.95,0-6.35,5.16-11.51,11.51-11.51s11.51,5.16,11.51,11.51c0,4.11-2.18,7.89-5.72,9.95v4.64c0,.33-.27.61-.61.61M7.54,45.36h9.16v-4.39c0-.22.12-.42.32-.53,3.33-1.81,5.4-5.28,5.4-9.06,0-5.68-4.62-10.3-10.3-10.3S1.83,25.69,1.83,31.37c0,3.78,2.07,7.26,5.4,9.06.2.11.32.31.32.53v4.39Z"/>
  <path class="st0" d="M12.12,51.24c-2.28,0-4.13-1.85-4.13-4.13,0-.33.27-.61.61-.61s.6.27.6.61c0,1.61,1.31,2.92,2.92,2.92s2.92-1.31,2.92-2.92c0-.33.27-.61.61-.61s.61.27.61.61c0,2.28-1.86,4.13-4.13,4.13"/>
  <path class="st0" d="M12.12,43.64c-.34,0-.61-.27-.61-.61v-9.04c0-.33.27-.61.61-.61s.61.27.61.61v9.04c0,.33-.27.61-.61.61"/>
  <path class="st0" d="M13.01,34.61h-1.77c-1.87,0-3.38-1.52-3.38-3.38,0-.33.27-.61.61-.61s.61.27.61.61c0,1.2.97,2.17,2.17,2.17h1.77c1.2,0,2.17-.97,2.17-2.17,0-.33.27-.61.6-.61s.61.27.61.61c0,1.87-1.52,3.38-3.38,3.38"/>
</svg>